<svg xmlns="http://www.w3.org/2000/svg" xmlns:svg="http://www.w3.org/2000/svg" id="svg80182" width="420mm" height="148mm" version="1.1" viewBox="0 0 420 148"><metadata id="metadata80179"/><g id="layer1" transform="translate(0,-149)"><path style="fill:#458588;fill-opacity:1;fill-rule:evenodd;stroke:none;stroke-width:.5;stroke-linecap:butt;stroke-linejoin:miter;stroke-miterlimit:4;stroke-dasharray:none;stroke-opacity:1" id="path80735" d="m 107.99836,207.61702 -43.998362,24.29055 v 51.85836 l 43.998362,-25.38297 z"/><path style="fill:#d79921;fill-opacity:1;fill-rule:evenodd;stroke:none;stroke-width:.5;stroke-linecap:butt;stroke-linejoin:miter;stroke-miterlimit:4;stroke-dasharray:none;stroke-opacity:1" id="path80741" d="m 20.001635,207.61702 43.998366,-25.38297 43.998359,25.38297 -43.998362,24.29055 z"/><path style="fill:#cc241d;fill-opacity:1;fill-rule:evenodd;stroke:none;stroke-width:.5;stroke-linecap:butt;stroke-linejoin:miter;stroke-miterlimit:4;stroke-dasharray:none;stroke-opacity:1" id="path80733" d="m 20.001635,207.61702 43.998363,24.29055 v 51.85836 L 20.001633,258.38296 Z"/><path style="fill:none;fill-opacity:1;stroke:#282828;stroke-width:12.09373751;stroke-miterlimit:4;stroke-dasharray:none;stroke-opacity:1" id="path80727" d="m 62.493116,179.93144 44.325034,25.59108 0,51.18214 -44.325037,25.59107 -44.325036,-25.59107 1e-6,-51.18215 z" transform="matrix(0.9926301,0,0,0.99186822,1.9674535,3.7657682)"/><path style="fill:#282828;fill-opacity:1;stroke:none;stroke-width:7.99999952;stroke-miterlimit:4;stroke-dasharray:none;stroke-opacity:1" id="path80749" d="m 74,210.66412 -5,8.66026 H 59 l -5,-8.66026 5,-8.66025 h 10 z"/><g style="font-style:normal;font-variant:normal;font-weight:400;font-stretch:normal;font-size:112.8888855px;line-height:125%;font-family:'Sony Fixed';-inkscape-font-specification:'Sony Fixed, Normal';font-variant-ligatures:normal;font-variant-caps:normal;font-variant-numeric:normal;font-feature-settings:normal;text-align:start;letter-spacing:0;word-spacing:0;writing-mode:lr-tb;text-anchor:start;fill:#000;fill-opacity:1;stroke:none;stroke-width:.26458332px;stroke-linecap:butt;stroke-linejoin:miter;stroke-opacity:1" id="text80791" aria-label="intoli"><path style="font-style:normal;font-variant:normal;font-weight:400;font-stretch:normal;font-size:112.8888855px;font-family:'Sony Fixed';-inkscape-font-specification:'Sony Fixed, Normal';font-variant-ligatures:normal;font-variant-caps:normal;font-variant-numeric:normal;font-feature-settings:normal;text-align:start;writing-mode:lr-tb;text-anchor:start;fill:#282828;fill-opacity:1;stroke-width:.26458332px" id="path5213" d="m 145.77377,213.34919 h 10.14236 v 61.73611 h -10.14236 z m 0,-24.03299 h 10.14236 v 12.84332 h -10.14236 z"/><path style="font-style:normal;font-variant:normal;font-weight:400;font-stretch:normal;font-size:112.8888855px;font-family:'Sony Fixed';-inkscape-font-specification:'Sony Fixed, Normal';font-variant-ligatures:normal;font-variant-caps:normal;font-variant-numeric:normal;font-feature-settings:normal;text-align:start;writing-mode:lr-tb;text-anchor:start;fill:#282828;fill-opacity:1;stroke-width:.26458332px" id="path5215" d="m 228.40094,237.82314 v 37.26216 h -10.14236 v -36.93143 q 0,-8.76432 -3.41754,-13.11892 -3.41753,-4.3546 -10.2526,-4.3546 -8.21311,0 -12.95356,5.23655 -4.74045,5.23654 -4.74045,14.27647 v 34.89193 h -10.19748 v -61.73611 h 10.19748 v 9.59114 q 3.63802,-5.56727 8.54383,-8.32335 4.96094,-2.75607 11.41016,-2.75607 10.63845,0 16.09549,6.61458 5.45703,6.55946 5.45703,19.34765 z"/><path style="font-style:normal;font-variant:normal;font-weight:400;font-stretch:normal;font-size:112.8888855px;font-family:'Sony Fixed';-inkscape-font-specification:'Sony Fixed, Normal';font-variant-ligatures:normal;font-variant-caps:normal;font-variant-numeric:normal;font-feature-settings:normal;text-align:start;writing-mode:lr-tb;text-anchor:start;fill:#282828;fill-opacity:1;stroke-width:.26458332px" id="path5217" d="m 258.7729,195.82054 v 17.52865 h 20.89106 v 7.88238 H 258.7729 v 33.51388 q 0,7.55165 2.03949,9.70139 2.09462,2.14974 8.4336,2.14974 h 10.41797 v 8.48872 h -10.41797 q -11.74089,0 -16.20573,-4.3546 -4.46484,-4.40973 -4.46484,-15.98525 v -33.51388 h -7.44141 v -7.88238 h 7.44141 v -17.52865 z"/><path style="font-style:normal;font-variant:normal;font-weight:400;font-stretch:normal;font-size:112.8888855px;font-family:'Sony Fixed';-inkscape-font-specification:'Sony Fixed, Normal';font-variant-ligatures:normal;font-variant-caps:normal;font-variant-numeric:normal;font-feature-settings:normal;text-align:start;writing-mode:lr-tb;text-anchor:start;fill:#282828;fill-opacity:1;stroke-width:.26458332px" id="path5219" d="m 316.98123,220.45986 q -8.15799,0 -12.89844,6.3941 -4.74045,6.33898 -4.74045,17.4184 0,11.07943 4.68533,17.47353 4.74045,6.33897 12.95356,6.33897 8.10286,0 12.84331,-6.39409 4.74045,-6.3941 4.74045,-17.41841 0,-10.96918 -4.74045,-17.36328 -4.74045,-6.44922 -12.84331,-6.44922 z m 0,-8.59895 q 13.22916,0 20.78081,8.59895 7.55165,8.59896 7.55165,23.8125 0,15.15842 -7.55165,23.8125 -7.55165,8.59896 -20.78081,8.59896 -13.28429,0 -20.83594,-8.59896 -7.49653,-8.65408 -7.49653,-23.8125 0,-15.21354 7.49653,-23.8125 7.55165,-8.59895 20.83594,-8.59895 z"/><path style="font-style:normal;font-variant:normal;font-weight:400;font-stretch:normal;font-size:112.8888855px;font-family:'Sony Fixed';-inkscape-font-specification:'Sony Fixed, Normal';font-variant-ligatures:normal;font-variant-caps:normal;font-variant-numeric:normal;font-feature-settings:normal;text-align:start;writing-mode:lr-tb;text-anchor:start;fill:#282828;fill-opacity:1;stroke-width:.26458332px" id="path5221" d="m 362.07064,189.3162 h 10.14237 v 85.7691 h -10.14237 z"/><path style="font-style:normal;font-variant:normal;font-weight:400;font-stretch:normal;font-size:112.8888855px;font-family:'Sony Fixed';-inkscape-font-specification:'Sony Fixed, Normal';font-variant-ligatures:normal;font-variant-caps:normal;font-variant-numeric:normal;font-feature-settings:normal;text-align:start;writing-mode:lr-tb;text-anchor:start;fill:#282828;fill-opacity:1;stroke-width:.26458332px" id="path5223" d="m 393.37967,213.34919 h 10.14236 v 61.73611 h -10.14236 z m 0,-24.03299 h 10.14236 v 12.84332 h -10.14236 z"/></g><rect style="fill:#282828;fill-opacity:1;stroke:none;stroke-width:20.05865479;stroke-miterlimit:4;stroke-dasharray:none;stroke-opacity:1" id="rect5286" width="12" height="51.493" x="58.031" y="228.58"/></g></svg>